<svg width="159" height="60" viewBox="0 0 159 60" fill="none" xmlns="http://www.w3.org/2000/svg">
<g clip-path="url(#clip0)">
<path d="M16.1982 21.9157V25.7684C16.1982 30.3789 13.54 33.0315 8.35005 33.0315C3.16025 33.0315 0.501953 30.3789 0.501953 25.7684V10.7368C0.501953 6.12626 3.16025 3.47363 8.35005 3.47363C13.54 3.47363 16.1982 6.12626 16.1982 10.7368V13.5157H11.1982V10.421C11.1982 8.33679 10.1223 7.5789 8.47665 7.5789C6.83105 7.5789 5.75515 8.33679 5.75515 10.421V25.9578C5.75515 28.0421 6.83105 28.7368 8.47665 28.7368C10.1223 28.7368 11.1982 27.9789 11.1982 25.9578V21.8526H16.1982V21.9157Z" fill="#8A178C"/>
<path d="M32.2742 24.3788H29.1729L28.1602 32.5893H23.8564L24.8691 24.3788H22.5273L22.9071 21.1577H25.2488L26.1349 13.6419H23.7931L24.1729 10.4209H26.578L27.4007 3.78931H31.7045L30.8818 10.4209H33.9829L34.8059 3.78931H39.1099L38.2869 10.4209H40.7549L40.3759 13.6419H37.9069L37.0209 21.1577H39.4889L39.1099 24.3788H36.6409L35.6289 32.5893H31.3248L32.2742 24.3788ZM29.5526 21.2209H32.6539L33.54 13.7051H30.4387L29.5526 21.2209Z" fill="#8A178C"/>
<path d="M58.8569 24.2525L62.4009 3.85254H69.7429V32.6525H64.7429V11.9999L61.1349 32.6525H56.1349L52.2109 12.2525V32.6525H47.5909V3.85254H54.9329L58.8569 24.2525Z" fill="#8A178C"/>
<path d="M83.1599 16.6104H89.9329V20.7157H83.1599V32.5894H77.9069V3.85254H91.8309V7.9578H83.1599V16.6104Z" fill="#FFB703"/>
<path d="M103.92 15.9789H111.135V20.0841H103.92V28.5473H113.034V32.6525H98.6669V3.85254H113.034V7.9578H103.92V15.9789Z" fill="#FFB703"/>
<path d="M135.882 21.9157V25.7684C135.882 30.3789 133.224 33.0315 128.034 33.0315C122.844 33.0315 120.186 30.3789 120.186 25.7684V10.7368C120.186 6.12626 122.844 3.47363 128.034 3.47363C133.224 3.47363 135.882 6.12626 135.882 10.7368V13.5157H130.882V10.421C130.882 8.33679 129.806 7.5789 128.16 7.5789C126.515 7.5789 125.439 8.33679 125.439 10.421V25.9578C125.439 28.0421 126.515 28.7368 128.16 28.7368C129.806 28.7368 130.882 27.9789 130.882 25.9578V21.8526H135.882V21.9157Z" fill="#8A178C"/>
<path d="M142.971 10.7368C142.971 6.12626 145.819 3.47363 150.945 3.47363C156.135 3.47363 158.92 6.12626 158.92 10.7368V25.7052C158.92 30.3157 156.072 32.9684 150.945 32.9684C145.756 32.9684 142.971 30.3157 142.971 25.7052V10.7368ZM148.224 26.021C148.224 28.1052 149.3 28.8631 150.945 28.8631C152.591 28.8631 153.667 28.1052 153.667 26.021V10.421C153.667 8.33679 152.591 7.5789 150.945 7.5789C149.3 7.5789 148.224 8.33679 148.224 10.421V26.021Z" fill="#8A178C"/>
<path d="M0.501953 38.021H158.603V39.9157H0.501953V38.021Z" fill="url(#paint0_linear)"/>
<path d="M5.43924 52.1686V53.4318C5.43924 54.9476 4.55324 55.7686 2.90764 55.7686C1.26204 55.7686 0.376038 54.9476 0.376038 53.4318V48.6318C0.376038 47.116 1.26204 46.2949 2.90764 46.2949C4.55324 46.2949 5.43924 47.116 5.43924 48.6318V49.516H3.85704V48.5054C3.85704 47.8739 3.54054 47.6212 2.97094 47.6212C2.40134 47.6212 2.08484 47.8739 2.08484 48.5054V53.4949C2.08484 54.1265 2.40134 54.3791 2.97094 54.3791C3.54054 54.3791 3.85704 54.1265 3.85704 53.4949V52.1686H5.43924Z" fill="#8A178C"/>
<path d="M7.71783 48.5685C7.71783 47.0527 8.60384 46.2317 10.3127 46.2317C11.9583 46.2317 12.9076 47.0527 12.9076 48.5685V53.3685C12.9076 54.8843 12.0216 55.7054 10.3127 55.7054C8.66714 55.7054 7.71783 54.8843 7.71783 53.3685V48.5685ZM9.42664 53.4948C9.42664 54.1264 9.74314 54.3791 10.3127 54.3791C10.8823 54.3791 11.1988 54.1264 11.1988 53.4948V48.5054C11.1988 47.8738 10.8823 47.6212 10.3127 47.6212C9.74314 47.6212 9.42664 47.8738 9.42664 48.5054V53.4948Z" fill="#8A178C"/>
<path d="M18.9203 52.9895L20.0595 46.4211H22.4013V55.7053H20.819V49.0105L19.6165 55.6421H18.0975L16.8317 49.0737V55.6421H15.376V46.3579H17.7177L18.9203 52.9895Z" fill="#8A178C"/>
<path d="M28.6671 52.9895L29.8064 46.4211H32.1481V55.7053H30.5659V49.0105L29.3633 55.6421H27.7811L26.5152 49.0737V55.6421H25.0595V46.3579H27.4013L28.6671 52.9895Z" fill="#8A178C"/>
<path d="M36.4519 46.3579V53.4947C36.4519 54.1263 36.7689 54.379 37.3379 54.379C37.9079 54.379 38.2239 54.1263 38.2239 53.4947V46.3579H39.8069V53.4316C39.8069 54.9474 38.9199 55.7684 37.2749 55.7684C35.6289 55.7684 34.7429 54.9474 34.7429 53.4316V46.3579H36.4519Z" fill="#8A178C"/>
<path d="M43.8569 48.9474V55.6421H42.3379V46.3579H44.4899L46.2619 51.9158V46.3579H47.7809V55.6421H45.9459L43.8569 48.9474Z" fill="#8A178C"/>
<path d="M50.3129 46.3579H52.0209V55.6421H50.3129V46.3579Z" fill="#8A178C"/>
<path d="M54.174 46.3579H59.427V47.6842H57.655V55.6421H55.946V47.6842H54.174V46.3579Z" fill="#8A178C"/>
<path d="M63.0969 52.5474L60.9449 46.3579H62.7179L63.9829 50.5895L65.2489 46.3579H66.895L64.7429 52.5474V55.6421H63.0339V52.5474H63.0969Z" fill="#8A178C"/>
<path d="M74.4899 50.4632H76.7049V51.7895H74.4899V55.6421H72.7809V46.3579H77.2749V47.6842H74.4899V50.4632Z" fill="#FFB703"/>
<path d="M81.1989 50.2737H83.5409V51.6H81.1989V54.3158H84.1109V55.6421H79.4899V46.3579H84.1109V47.6842H81.1989V50.2737Z" fill="#FFB703"/>
<path d="M88.8569 46.2949C90.5029 46.2949 91.3889 47.116 91.3889 48.6318V48.9476H89.8059V48.5686C89.8059 47.937 89.4899 47.6844 88.9839 47.6844C88.4769 47.6844 88.1609 47.937 88.1609 48.5686C88.1609 50.4633 91.4519 50.8423 91.4519 53.4949C91.4519 55.0107 90.5659 55.8318 88.9199 55.8318C87.2749 55.8318 86.3889 55.0107 86.3889 53.4949V52.9265H87.9709V53.6212C87.9709 54.2528 88.2869 54.5054 88.8569 54.5054C89.4269 54.5054 89.7429 54.2528 89.7429 53.6212C89.7429 51.7265 86.4519 51.3476 86.4519 48.6949C86.3249 47.116 87.2119 46.2949 88.8569 46.2949Z" fill="#FFB703"/>
<path d="M93.2239 46.3579H98.4769V47.6842H96.7049V55.6421H94.9959V47.6842H93.2239V46.3579Z" fill="#FFB703"/>
<path d="M109.87 55.6421H108.161L107.845 53.9369H105.756L105.44 55.6421H103.858L105.566 46.3579H108.035L109.87 55.6421ZM106.009 52.7369H107.655L106.832 48.0632L106.009 52.7369Z" fill="#521E87"/>
<path d="M113.541 48.9474V55.6421H112.022V46.3579H114.173L115.946 51.9158V46.3579H117.465V55.6421H115.692L113.541 48.9474Z" fill="#521E87"/>
<path d="M119.996 46.3579H122.654C124.363 46.3579 125.186 47.179 125.186 48.6316V53.3053C125.186 54.8211 124.363 55.579 122.654 55.579H119.996V46.3579ZM121.705 47.6842V54.3158H122.654C123.224 54.3158 123.54 54.0632 123.54 53.4316V48.6316C123.54 48 123.224 47.7474 122.654 47.7474H121.705V47.6842Z" fill="#521E87"/>
<path d="M136.389 52.1686V53.4318C136.389 54.9476 135.502 55.7686 133.857 55.7686C132.211 55.7686 131.325 54.9476 131.325 53.4318V48.6318C131.325 47.116 132.211 46.2949 133.857 46.2949C135.502 46.2949 136.389 47.116 136.389 48.6318V49.516H134.806V48.5054C134.806 47.8739 134.49 47.6212 133.92 47.6212C133.351 47.6212 133.034 47.8739 133.034 48.5054V53.4949C133.034 54.1265 133.351 54.3791 133.92 54.3791C134.49 54.3791 134.806 54.1265 134.806 53.4949V52.1686H136.389Z" fill="#521E87"/>
<path d="M138.667 48.5685C138.667 47.0527 139.553 46.2317 141.262 46.2317C142.971 46.2317 143.857 47.0527 143.857 48.5685V53.3685C143.857 54.8843 142.971 55.7054 141.262 55.7054C139.553 55.7054 138.667 54.8843 138.667 53.3685V48.5685ZM140.376 53.4948C140.376 54.1264 140.692 54.3791 141.262 54.3791C141.832 54.3791 142.148 54.1264 142.148 53.4948V48.5054C142.148 47.8738 141.832 47.6212 141.262 47.6212C140.692 47.6212 140.376 47.8738 140.376 48.5054V53.4948Z" fill="#521E87"/>
<path d="M146.325 46.3579H148.983C150.692 46.3579 151.515 47.179 151.515 48.6316V53.3053C151.515 54.8211 150.692 55.579 148.983 55.579H146.325V46.3579ZM148.034 47.6842V54.3158H148.983C149.553 54.3158 149.87 54.0632 149.87 53.4316V48.6316C149.87 48 149.553 47.7474 148.983 47.7474H148.034V47.6842Z" fill="#521E87"/>
<path d="M155.692 50.2737H158.034V51.6H155.692V54.3158H158.604V55.6421H153.983V46.3579H158.604V47.6842H155.692V50.2737Z" fill="#521E87"/>
</g>
<defs>
<linearGradient id="paint0_linear" x1="0.510353" y1="38.9757" x2="158.574" y2="38.9757" gradientUnits="userSpaceOnUse">
<stop stop-color="#521E87"/>
<stop offset="0.1455" stop-color="#5C1D88"/>
<stop offset="0.3882" stop-color="#751A8A"/>
<stop offset="0.5493" stop-color="#8A178C"/>
<stop offset="0.5628" stop-color="#8E1C87"/>
<stop offset="0.7755" stop-color="#C36E42"/>
<stop offset="0.9262" stop-color="#E4A017"/>
<stop offset="1" stop-color="#F1B406"/>
</linearGradient>
<clipPath id="clip0">
<rect width="158" height="60" fill="white" transform="translate(0.709961)"/>
</clipPath>
</defs>
</svg>
